# xmcd CD database file
#
# Track frame offsets:
#	150
#	31112
#	49142
#	71140
#	89175
#	113127
#	139595
#	162707
#	202917
#	219817
#	243537
#	264842
#	283765
#	307875
#
# Disc length: 4288 seconds
#
# Revision: 0
# Processed by: cddbd v1.5.2PL0 Copyright (c) Steve Scherf et al.
# Submitted via: CDex 1.51
#
DISCID=ca10be0e
DTITLE=Frank Glover Trio - Mosaic
DYEAR=1991
DGENRE=Jazz
TTITLE0=Mosaic
TTITLE1=Toru Takemitsu
TTITLE2=Center
TTITLE3=Supreme Love
TTITLE4=The Teacher
TTITLE5=125
TTITLE6=Little One
TTITLE7=Iraq-Kuwait
TTITLE8=Salvador Dali Part 1
TTITLE9=Salvador Dali Part 2
TTITLE10=Time and Place
TTITLE11=Synergism
TTITLE12=Jasper's Fourth Of July
TTITLE13=Farewell
EXTD=YEAR: 1991
EXTT0=
EXTT1=
EXTT2=
EXTT3=
EXTT4=
EXTT5=
EXTT6=
EXTT7=
EXTT8=
EXTT9=
EXTT10=
EXTT11=
EXTT12=
EXTT13=
PLAYORDER=
